# xmcd CD database file
#
# Track frame offsets:
#	150
#	13600
#	24683
#	37340
#	52500
#	65460
#	79798
#	92455
#	104795
#	121205
#	134323
#	147108
#	156823
#	171990
#
# Disc length: 2450 seconds
#
# Revision: 0
# Processed by: cddbd v1.4PL0 Copyright (c) Steve Scherf et al.
# Submitted via: CDex 1.50beta9
#
DISCID=b709900e
DTITLE=Johnny Loughrey - THROUGH THE YEARS
DYEAR=1994
DGENRE=Country
TTITLE0=Love Is All That Matters
TTITLE1=Waltz Across Ireland
TTITLE2=Full time Fool
TTITLE3=Every Inch I Laughed I Cried A Mile
TTITLE4=Thoughts Of Ireland
TTITLE5=Blue Eyes Crying In The Rain
TTITLE6=The Way I Loved You Best
TTITLE7=Johnny Rondo
TTITLE8=Home To Donegal
TTITLE9=Time Wont Take Your Memory Away
TTITLE10=New Moon Over My Shoulder
TTITLE11=The Wals Of This Honky Tonk
TTITLE12=Through The Years
TTITLE13=Old Flames
EXTD=YEAR: 1994
EXTT0=
EXTT1=
EXTT2=
EXTT3=
EXTT4=
EXTT5=
EXTT6=
EXTT7=
EXTT8=
EXTT9=
EXTT10=
EXTT11=
EXTT12=
EXTT13=
PLAYORDER=
